<svg version="1.1" x="0px" y="0px" viewBox="-849 974 300 53">
    <g>
    <path class="name" d="M-579.2,997.6c-1.2-3.3-3.8-6-7.1-7.1c-1.2-0.4-2.5-0.7-3.9-0.7h-7.8c-1.4,0-2.7,0.2-3.9,0.7
        c-3.3,1.2-6,3.8-7.1,7.1c-0.4,1.2-0.7,2.5-0.7,3.9v11.7c0,1.4,0.2,2.7,0.7,3.9c1.2,3.3,3.8,6,7.1,7.1c1.2,0.4,2.5,0.7,3.9,0.7h11.7
        c2.2,0,3.9-1.7,3.9-3.9s-1.7-3.9-3.9-3.9c-0.2,0-0.5,0-0.7,0.1c0,0,0,0,0-0.1h-11c-2.2,0-3.9-1.7-3.9-3.9h11.7
        c1.4,0,2.7-0.2,3.9-0.7l0,0c3.3-1.2,6-3.8,7.1-7.1c0.4-1.2,0.7-2.5,0.7-3.9S-578.7,998.8-579.2,997.6z M-589.3,1005.3
        C-589.3,1005.3-589.3,1005.4-589.3,1005.3l-8.6,0.1c-1.9,0-3.5-1.4-3.8-3.3l0,0l0,0v-0.7c0-2.2,1.7-3.9,3.9-3.9h7.8
        c2.2,0,3.9,1.7,3.9,3.9C-586.3,1003.4-587.6,1004.9-589.3,1005.3z"/>
    <path class="name" d="M-619.2,974.2c-2.2,0-3.9,1.7-3.9,3.9v12.4c-1.2-0.4-2.5-0.7-3.9-0.7h-7.8
        c-1.4,0-2.7,0.2-3.9,0.7c-3.3,1.2-6,3.8-7.1,7.1c-0.4,1.2-0.7,2.5-0.7,3.9v11.7c0,1.4,0.2,2.7,0.7,3.9c1.2,3.3,3.8,6,7.1,7.1
        c1.2,0.4,2.5,0.7,3.9,0.7h7.8c1.4,0,2.7-0.2,3.9-0.7c3.3-1.2,6-3.8,7.1-7.1c0.4-1.2,0.7-2.5,0.7-3.9v-35.1
        C-615.3,975.9-617,974.2-619.2,974.2z M-623.1,1013.2c0,2.2-1.7,3.9-3.9,3.9h-7.8c-2.2,0-3.9-1.7-3.9-3.9v-11.7
        c0-2.2,1.7-3.9,3.9-3.9h7.8c2.2,0,3.9,1.7,3.9,3.9V1013.2z"
    />
    <path class="name" d="M-652.7,997.6c-1.2-3.3-3.8-6-7.1-7.1c-1.2-0.4-2.5-0.7-3.9-0.7h-7.8c-1.4,0-2.7,0.2-3.9,0.7
        c-3.3,1.2-6,3.8-7.1,7.1c-0.4,1.2-0.7,2.5-0.7,3.9v11.7c0,1.4,0.2,2.7,0.7,3.9c1.2,3.3,3.8,6,7.1,7.1c1.2,0.4,2.5,0.7,3.9,0.7h7.8
        c1.4,0,2.7-0.2,3.9-0.7c3.3-1.2,6-3.8,7.1-7.1c0.4-1.2,0.7-2.5,0.7-3.9v-11.7C-652,1000.1-652.3,998.8-652.7,997.6z M-659.8,1013.2
        c0,2.2-1.7,3.9-3.9,3.9h-7.8c-2.2,0-3.9-1.7-3.9-3.9v-11.7c0-2.2,1.7-3.9,3.9-3.9h7.8c2.2,0,3.9,1.7,3.9,3.9V1013.2z" />
    <path class="name" d="M-688.8,1021c0,2.2-1.7,3.9-3.9,3.9h-15.6c-1.4,0-2.7-0.2-3.9-0.7c-3.3-1.2-6-3.8-7.1-7.1
        c-0.4-1.2-0.7-2.5-0.7-3.9v-11.7c0-1.4,0.2-2.7,0.7-3.9c1.2-3.3,3.8-6,7.1-7.1c1.2-0.4,2.5-0.7,3.9-0.7h15.6c2.2,0,3.9,1.7,3.9,3.9
        s-1.7,3.9-3.9,3.9h-15.6c-2.2,0-3.9,1.7-3.9,3.9v11.7c0,2.2,1.7,3.9,3.9,3.9h15.6C-690.6,1017.1-688.8,1018.8-688.8,1021z"
    />
    <path class="name" d="M-764.8,1001.5v19.5c0,2.2-1.7,3.9-3.9,3.9s-3.9-1.7-3.9-3.9v-19.5c0-2.2-1.7-3.9-3.9-3.9
        h-7.8c-2.2,0-3.9,1.7-3.9,3.9v19.5c0,2.2-1.7,3.9-3.9,3.9c-2.2,0-3.9-1.7-3.9-3.9v-19.5c0-2.2-1.7-3.9-3.9-3.9h-7.8
        c-2.2,0-3.9,1.7-3.9,3.9v19.5c0,2.2-1.7,3.9-3.9,3.9c-2.2,0-3.9-1.7-3.9-3.9v-19.5c0-1.4,0.2-2.7,0.7-3.9c1.2-3.3,3.8-6,7.1-7.1
        c1.2-0.4,2.5-0.7,3.9-0.7h7.8c1.4,0,2.7,0.2,3.9,0.7c1.5,0.5,2.8,1.3,3.9,2.3c1.1-1,2.4-1.8,3.9-2.3c1.2-0.4,2.5-0.7,3.9-0.7h7.8
        c1.4,0,2.7,0.2,3.9,0.7c3.3,1.2,6,3.8,7.1,7.1C-765,998.8-764.8,1000.1-764.8,1001.5z"/>
    <path class="name" d="M-751.4,993.7v27.3c0,2.2-1.7,3.9-3.9,3.9s-3.9-1.7-3.9-3.9v-27.3c0-2.2,1.7-3.9,3.9-3.9
        S-751.4,991.5-751.4,993.7z"/>
    <path fill="#30BE00" d="M-738.7,1025.6l13.7-35.1c0.4-1-0.1-2.1-1.1-2.5l0,0c-1-0.4-2.1,0.1-2.5,1.1l-13.7,35.1
        c-0.4,1,0.1,2.1,1.1,2.5l0,0C-740.2,1027.1-739.1,1026.6-738.7,1025.6z"/>
    <path fill="#30BE00" d="M-844.4,1007.5l15.9-15.9c0.8-0.8,0.8-2,0-2.7c-0.8-0.8-2-0.8-2.7,0l-17.2,17.2c-0.4,0.4-0.6,0.9-0.6,1.5
        c0,0.5,0.2,1,0.6,1.5l17.2,17.1c0.7,0.8,1.9,0.8,2.7,0c0.8-0.7,0.8-1.9,0-2.7L-844.4,1007.5z"/>
    <path fill="#30BE00" d="M-549.6,1006.1l-17.2-17.2c-0.7-0.8-1.9-0.8-2.7,0c-0.8,0.7-0.8,1.9,0,2.7l15.9,15.9l-15.9,15.9
        c-0.8,0.8-0.8,2,0,2.7c0.8,0.8,2,0.8,2.7,0l17.2-17.1c0.4-0.4,0.6-0.9,0.6-1.5C-549,1007-549.2,1006.5-549.6,1006.1z"/>
    <circle fill="#30BE00" cx="-755.3" cy="978.1" r="3.9" />
    </g>
</svg>