<?xml version="1.0" encoding="utf-8"?>
<!-- Generator: Adobe Illustrator 19.0.0, SVG Export Plug-In . SVG Version: 6.00 Build 0)  -->
<svg version="1.1" id="Camada_1" xmlns="http://www.w3.org/2000/svg" xmlns:xlink="http://www.w3.org/1999/xlink" x="0px" y="0px"
	 viewBox="0 0 130 130" style="enable-background:new 0 0 130 130;" xml:space="preserve">
<style type="text/css">
	.st0{fill:#30BE00;}
</style>
<g id="XMLID_23_">
	<g id="XMLID_20_">
		<g id="XMLID_104_">
			<path id="XMLID_106_" class="st0" d="M7.5,67.3L37.8,37c1.4-1.4,1.4-3.5,0-4.8l0,0c-1.4-1.4-3.5-1.4-4.8,0L2.7,62.5
				c-1.4,1.4-1.4,3.5,0,4.8l0,0C4,68.7,6.2,68.7,7.5,67.3z"/>
			<path id="XMLID_105_" class="st0" d="M7.5,62.7L37.8,93c1.4,1.4,1.4,3.5,0,4.8l0,0c-1.4,1.4-3.5,1.4-4.8,0L2.7,67.6
				c-1.4-1.4-1.4-3.5,0-4.8l0,0C4,61.5,6.2,61.5,7.5,62.7z"/>
		</g>
		<g id="XMLID_102_">
			<path id="XMLID_108_" class="st0" d="M122.5,67.3L92.2,37c-1.4-1.4-1.4-3.5,0-4.8l0,0c1.4-1.4,3.5-1.4,4.8,0l30.3,30.3
				c1.4,1.4,1.4,3.5,0,4.8l0,0C126,68.7,123.8,68.7,122.5,67.3z"/>
			<path id="XMLID_103_" class="st0" d="M122.5,62.7L92.2,93c-1.4,1.4-1.4,3.5,0,4.8l0,0c1.4,1.4,3.5,1.4,4.8,0l30.3-30.1
				c1.4-1.4,1.4-3.5,0-4.8l0,0C126,61.5,123.8,61.5,122.5,62.7z"/>
		</g>
	</g>
	<path id="XMLID_107_" class="st0" d="M56.6,94.9l22.4-57.5c0.7-1.6-0.2-3.4-1.8-4.1l0,0c-1.6-0.7-3.4,0.2-4.1,1.8L50.7,92.6
		c-0.7,1.6,0.2,3.4,1.8,4.1l0,0C54.2,97.3,56,96.5,56.6,94.9z"/>
</g>
</svg>
