<?xml version="1.0" encoding="utf-8"?>
<!-- Generator: Adobe Illustrator 19.0.0, SVG Export Plug-In . SVG Version: 6.00 Build 0)  -->
<svg version="1.1" id="Camada_1" xmlns="http://www.w3.org/2000/svg" xmlns:xlink="http://www.w3.org/1999/xlink" x="0px" y="0px"
	 viewBox="314 -260.3 786.8 572.3" style="enable-background:new 314 -260.3 786.8 572.3;" xml:space="preserve">
<style type="text/css">
	.st0{fill:#FFFFFF;}
	.st1{fill:#30BE00;}
</style>
<rect x="314" y="-260.3" width="786.8" height="572.3"/>
<g id="XMLID_20_">
	<path id="XMLID_150_" class="st0" d="M907.7,21c-2-5.5-6.4-10-11.9-11.9c-2-0.7-4.2-1.2-6.5-1.2h-13c-2.3,0-4.5,0.3-6.5,1.2
		c-5.5,2-10,6.4-11.9,11.9c-0.7,2-1.2,4.2-1.2,6.5v19.6c0,2.3,0.3,4.5,1.2,6.5c2,5.5,6.4,10,11.9,11.9c2,0.7,4.2,1.2,6.5,1.2h19.6
		c3.7,0,6.5-2.8,6.5-6.5c0-3.7-2.8-6.5-6.5-6.5c-0.3,0-0.8,0-1.2,0.2c0,0,0,0,0-0.2h-18.4c-3.7,0-6.5-2.8-6.5-6.5h19.6
		c2.3,0,4.5-0.3,6.5-1.2l0,0c5.5-2,10-6.4,11.9-11.9c0.7-2,1.2-4.2,1.2-6.5C908.9,25.2,908.5,23,907.7,21z M890.8,33.9
		C890.8,33.9,890.8,34,890.8,33.9L876.4,34c-3.2,0-5.9-2.3-6.4-5.5l0,0l0,0v-1.2c0-3.7,2.8-6.5,6.5-6.5h13c3.7,0,6.5,2.8,6.5,6.5
		C895.8,30.7,893.7,33.2,890.8,33.9z"/>
	<path id="XMLID_142_" class="st0" d="M840.8-18.1c-3.7,0-6.5,2.8-6.5,6.5V9.1c-2-0.7-4.2-1.2-6.5-1.2h-13c-2.3,0-4.5,0.3-6.5,1.2
		c-5.5,2-10,6.4-11.9,11.9c-0.7,2-1.2,4.2-1.2,6.5v19.6c0,2.3,0.3,4.5,1.2,6.5c2,5.5,6.4,10,11.9,11.9c2,0.7,4.2,1.2,6.5,1.2h13
		c2.3,0,4.5-0.3,6.5-1.2c5.5-2,10-6.4,11.9-11.9c0.7-2,1.2-4.2,1.2-6.5v-58.7C847.3-15.3,844.5-18.1,840.8-18.1z M834.3,47.1
		c0,3.7-2.8,6.5-6.5,6.5h-13c-3.7,0-6.5-2.8-6.5-6.5V27.5c0-3.7,2.8-6.5,6.5-6.5h13c3.7,0,6.5,2.8,6.5,6.5V47.1z"/>
	<path id="XMLID_139_" class="st0" d="M784.8,21c-2-5.5-6.4-10-11.9-11.9c-2-0.7-4.2-1.2-6.5-1.2h-13c-2.3,0-4.5,0.3-6.5,1.2
		c-5.5,2-10,6.4-11.9,11.9c-0.7,2-1.2,4.2-1.2,6.5v19.6c0,2.3,0.3,4.5,1.2,6.5c2,5.5,6.4,10,11.9,11.9c2,0.7,4.2,1.2,6.5,1.2h13
		c2.3,0,4.5-0.3,6.5-1.2c5.5-2,10-6.4,11.9-11.9c0.7-2,1.2-4.2,1.2-6.5V27.5C786,25.2,785.5,23,784.8,21z M772.9,47.1
		c0,3.7-2.8,6.5-6.5,6.5h-13c-3.7,0-6.5-2.8-6.5-6.5V27.5c0-3.7,2.8-6.5,6.5-6.5h13c3.7,0,6.5,2.8,6.5,6.5V47.1z"/>
	<path id="XMLID_138_" class="st0" d="M724.5,60.1c0,3.7-2.8,6.5-6.5,6.5h-26.1c-2.3,0-4.5-0.3-6.5-1.2c-5.5-2-10-6.4-11.9-11.9
		c-0.7-2-1.2-4.2-1.2-6.5V27.5c0-2.3,0.3-4.5,1.2-6.5c2-5.5,6.4-10,11.9-11.9c2-0.7,4.2-1.2,6.5-1.2h26.1c3.7,0,6.5,2.8,6.5,6.5
		s-2.8,6.5-6.5,6.5h-26.1c-3.7,0-6.5,2.8-6.5,6.5v19.6c0,3.7,2.8,6.5,6.5,6.5h26.1C721.5,53.6,724.5,56.4,724.5,60.1z"/>
	<path id="XMLID_149_" class="st0" d="M597.4,27.5v32.6c0,3.7-2.8,6.5-6.5,6.5c-3.7,0-6.5-2.8-6.5-6.5V27.5c0-3.7-2.8-6.5-6.5-6.5
		h-13c-3.7,0-6.5,2.8-6.5,6.5v32.6c0,3.7-2.8,6.5-6.5,6.5s-6.5-2.8-6.5-6.5V27.5c0-3.7-2.8-6.5-6.5-6.5h-13c-3.7,0-6.5,2.8-6.5,6.5
		v32.6c0,3.7-2.8,6.5-6.5,6.5c-3.7,0-6.5-2.8-6.5-6.5V27.5c0-2.3,0.3-4.5,1.2-6.5c2-5.5,6.4-10,11.9-11.9c2-0.7,4.2-1.2,6.5-1.2h13
		c2.3,0,4.5,0.3,6.5,1.2c2.5,0.8,4.7,2.2,6.5,3.8c1.8-1.7,4-3,6.5-3.8c2-0.7,4.2-1.2,6.5-1.2h13c2.3,0,4.5,0.3,6.5,1.2
		c5.5,2,10,6.4,11.9,11.9C597.1,23,597.4,25.2,597.4,27.5z"/>
	<path id="XMLID_137_" class="st0" d="M619.8,14.5v45.6c0,3.7-2.8,6.5-6.5,6.5s-6.5-2.8-6.5-6.5V14.5c0-3.7,2.8-6.5,6.5-6.5
		C617,8,619.8,10.8,619.8,14.5z"/>
	<path id="XMLID_107_" class="st1" d="M641,67.8l22.9-58.7c0.7-1.7-0.2-3.5-1.8-4.2l0,0c-1.7-0.7-3.5,0.2-4.2,1.8L635,65.5
		c-0.7,1.7,0.2,3.5,1.8,4.2l0,0C638.5,70.3,640.4,69.5,641,67.8z"/>
	<g id="XMLID_104_">
		<path id="XMLID_106_" class="st1" d="M462.2,39.7L490.9,11c1.3-1.3,1.3-3.3,0-4.5l0,0c-1.3-1.3-3.3-1.3-4.5,0l-28.8,28.8
			c-1.3,1.3-1.3,3.3,0,4.5l0,0C458.8,41.1,461,41.1,462.2,39.7z"/>
		<path id="XMLID_105_" class="st1" d="M462.2,35.4l28.8,28.8c1.3,1.3,1.3,3.3,0,4.5l0,0c-1.3,1.3-3.3,1.3-4.5,0L457.6,40
			c-1.3-1.3-1.3-3.3,0-4.5l0,0C458.8,34.2,461,34.2,462.2,35.4z"/>
	</g>
	<g id="XMLID_102_">
		<path id="XMLID_108_" class="st1" d="M952.7,39.7L923.9,11c-1.3-1.3-1.3-3.3,0-4.5l0,0c1.3-1.3,3.3-1.3,4.5,0l28.8,28.8
			c1.3,1.3,1.3,3.3,0,4.5l0,0C956,41.1,953.8,41.1,952.7,39.7z"/>
		<path id="XMLID_103_" class="st1" d="M952.7,35.4l-28.8,28.8c-1.3,1.3-1.3,3.3,0,4.5l0,0c1.3,1.3,3.3,1.3,4.5,0L957.2,40
			c1.3-1.3,1.3-3.3,0-4.5l0,0C956,34.2,953.8,34.2,952.7,35.4z"/>
	</g>
	<circle id="XMLID_98_" class="st1" cx="613.3" cy="-11.6" r="6.5"/>
</g>
</svg>
