<svg version="1.1" x="0px" y="0px" viewBox="-66 15 24 24">
    <path fill="none" d="M-66,15" />
    <g>
        <path fill="#30BE00" d="M-49.9,23.8H-52c-0.1,0-0.2,0.1-0.2,0.2v1.9c0,0.1,0.1,0.2,0.2,0.2h2.1c0.1,0,0.2-0.1,0.2-0.2v-1.9
		C-49.7,23.8-49.8,23.8-49.9,23.8z" />
        <path fill="#30BE00" d="M-44.2,24.3c-0.3,0-0.7,0-1,0.1c-0.2-1.7-1.7-2.5-1.7-2.6l-0.3-0.2l-0.2,0.3c-0.3,0.4-0.5,0.9-0.6,1.4
		c-0.2,1-0.1,1.9,0.4,2.7c-0.6,0.3-1.5,0.4-1.7,0.4h-15.8c-0.4,0-0.7,0.3-0.7,0.8c0,1.4,0.2,2.8,0.7,4.1c0.5,1.4,1.4,2.5,2.4,3.1
		c1.2,0.7,3.1,1.1,5.3,1.1c1,0,2-0.1,2.9-0.3c1.3-0.3,2.6-0.7,3.8-1.4c1-0.6,1.9-1.3,2.6-2.1c1.3-1.4,2-3,2.6-4.4h0.2
		c1.4,0,2.2-0.5,2.7-1c0.3-0.3,0.6-0.7,0.7-1L-42,25l-0.2-0.2C-42.3,24.8-42.9,24.3-44.2,24.3z" />
        <path fill="#30BE00" d="M-61.7,23.8h-2.1c-0.1,0-0.2,0.1-0.2,0.2v1.9c0,0.1,0.1,0.2,0.2,0.2h2.1c0.1,0,0.2-0.1,0.2-0.2v-1.9
		C-61.5,23.8-61.6,23.8-61.7,23.8z" />
        <path fill="#30BE00" d="M-55.2,18.5v1.9c0,0.1,0.1,0.2,0.2,0.2h2.1c0.1,0,0.2-0.1,0.2-0.2v-1.9c0-0.1-0.1-0.2-0.2-0.2H-55
		C-55.1,18.3-55.2,18.4-55.2,18.5z" />
        <path fill="#30BE00" d="M-58.7,23.8h-2.1c-0.1,0-0.2,0.1-0.2,0.2v1.9c0,0.1,0.1,0.2,0.2,0.2h2.1c0.1,0,0.2-0.1,0.2-0.2v-1.9
		C-58.6,23.8-58.6,23.8-58.7,23.8z" />
        <path fill="#30BE00" d="M-52.9,23.8H-55c-0.1,0-0.2,0.1-0.2,0.2v1.9c0,0.1,0.1,0.2,0.2,0.2h2.1c0.1,0,0.2-0.1,0.2-0.2v-1.9
		C-52.7,23.8-52.7,23.8-52.9,23.8z" />
        <path fill="#30BE00" d="M-52.9,21H-55c-0.1,0-0.2,0.1-0.2,0.2v1.9c0,0.1,0.1,0.2,0.2,0.2h2.1c0.1,0,0.2-0.1,0.2-0.2v-1.9
		C-52.7,21.1-52.7,21-52.9,21z" />
        <path fill="#30BE00" d="M-58.7,21h-2.1c-0.1,0-0.2,0.1-0.2,0.2v1.9c0,0.1,0.1,0.2,0.2,0.2h2.1c0.1,0,0.2-0.1,0.2-0.2v-1.9
		C-58.6,21.1-58.6,21-58.7,21z" />
        <path fill="#30BE00" d="M-55.8,23.8h-2.1c-0.1,0-0.2,0.1-0.2,0.2v1.9c0,0.1,0.1,0.2,0.2,0.2h2.1c0.1,0,0.2-0.1,0.2-0.2v-1.9
		C-55.6,23.8-55.7,23.8-55.8,23.8z" />
        <path fill="#30BE00" d="M-55.8,21h-2.1c-0.1,0-0.2,0.1-0.2,0.2v1.9c0,0.1,0.1,0.2,0.2,0.2h2.1c0.1,0,0.2-0.1,0.2-0.2v-1.9
		C-55.6,21.1-55.7,21-55.8,21z" />
    </g>
</svg>