<svg version="1.1" x="0px" y="0px" viewBox="-92 94 24 24">
    <path fill="#30BE00" d="M-80,94c-1.2,0-2.1,1-2.1,2.1c0,1.2,1,2.1,2.1,2.1s2.1-1,2.1-2.1C-77.9,95-78.8,94-80,94z M-71.5,98.9
	c-1.2,0-2.1,1-2.1,2.1s1,2.1,2.1,2.1s2.1-1,2.1-2.1S-70.3,98.9-71.5,98.9L-71.5,98.9z M-71.5,108.8c-1.2,0-2.1,1-2.1,2.1
	s1,2.1,2.1,2.1s2.1-1,2.1-2.1S-70.3,108.8-71.5,108.8z M-80,113.7c-1.2,0-2.1,1-2.1,2.1c0,1.2,1,2.1,2.1,2.1c0,0,0,0,0,0
	c1.2,0,2.1-1,2.1-2.1S-78.8,113.7-80,113.7z M-88.5,108.8c-1.2,0-2.1,1-2.1,2.1s1,2.1,2.1,2.1c0,0,0,0,0,0c1.2,0,2.1-1,2.1-2.1
	S-87.4,108.8-88.5,108.8L-88.5,108.8z M-88.5,98.9c-1.2,0-2.1,1-2.1,2.1s1,2.1,2.1,2.1s2.1-1,2.1-2.1S-87.4,98.9-88.5,98.9z
	 M-80,95.6l-9,5.2v10.4l9,5.2l9-5.2v-10.4L-80,95.6z M-80,97.2l7.7,13.3h-15.3L-80,97.2z M-81.4,97.5L-88,109v-7.7L-81.4,97.5z
	 M-78.6,97.5l6.6,3.8v7.7L-78.6,97.5z M-86.6,111.4h13.3l-6.6,3.8L-86.6,111.4z" />
</svg>