<svg version="1.1" id="Camada_1" x="0px" y="0px" viewBox="-92 94 24 24">
<title>NestJS</title>
<path fill="#30BE00" d="M-77.9,94c-0.2,0-0.3,0-0.5,0.1c0.3,0.2,0.5,0.5,0.6,0.8c0,0,0,0.1,0,0.1c0,0,0,0.1,0,0.1
	c0,0.5-0.1,0.6-0.3,0.9c-0.2,0.4-0.1,0.9,0.1,1.2c0,0,0,0.1,0.1,0.1c-0.2-1.6,1.1-1.8,1.3-2.3c0-0.4-0.3-0.7-0.6-0.9
	C-77.4,94.1-77.6,94-77.9,94L-77.9,94z M-75.9,94.4c0,0.1,0,0.1,0,0.2c0,0,0,0.1,0,0.2c0,0.1,0,0.1,0,0.1c0,0.1,0,0.1,0,0.1
	l-0.1,0.1c0,0,0,0.1-0.1,0.1l0,0.1c0,0-0.1,0.1-0.1,0.1c0,0-0.1,0.1-0.1,0.1v0c0,0-0.1,0.1-0.1,0.1c-0.1,0.1-0.3,0.2-0.4,0.3
	c0,0-0.1,0.1-0.1,0.1c0,0-0.1,0.1-0.1,0.1c0,0-0.1,0.1-0.1,0.1c0,0-0.1,0.1-0.1,0.1c0,0-0.1,0.1-0.1,0.1c0,0,0,0.1-0.1,0.1
	c0,0.1,0,0.1,0,0.1c0,0.1,0,0.1,0,0.2c0,0,0,0.1,0,0.1c0,0,0,0.1,0,0.1c0,0,0,0.1,0,0.2c0,0,0,0.1,0,0.1c0,0,0,0.1,0,0.2
	c0,0.1,0,0.1,0,0.2c0,0,0,0.1,0.1,0.1c0,0,0,0.1,0,0.1l-1.4-0.6c-0.2-0.1-0.5-0.1-0.7-0.2l-0.4-0.1c-0.4-0.1-0.8-0.1-1.1-0.2
	c0,0,0,0,0,0c-0.6-0.1-1.3-0.1-1.9,0c-0.4,0-0.8,0.1-1.1,0.1c-0.3,0-0.6,0.1-0.8,0.2l-0.3,0.1c-0.1,0-0.2,0.1-0.3,0.1l-0.2,0.1
	c0,0,0,0,0,0c-0.1,0-0.1,0.1-0.2,0.1c-0.1,0-0.2,0.1-0.2,0.1c0,0-0.1,0-0.1,0.1c0,0,0,0-0.1,0c-0.1,0-0.1,0.1-0.2,0.1
	c-0.1,0-0.1,0.1-0.1,0.1c0,0-0.1,0.1-0.1,0.1c0,0,0,0,0,0c0,0-0.1,0.1-0.1,0.1l0,0l-0.1,0.1c0,0,0,0,0,0c0,0-0.1,0.1-0.1,0.1
	c0,0,0,0,0,0c0,0-0.1,0.1-0.1,0.1c0,0,0,0,0,0c0,0-0.1,0.1-0.1,0.1c0,0,0,0,0,0c0,0-0.1,0.1-0.1,0.1c0,0,0,0,0,0
	c0,0-0.1,0.1-0.1,0.1c0,0,0,0,0,0c0,0.1-0.1,0.1-0.1,0.2l0,0c-0.1,0.1-0.2,0.2-0.3,0.3c-0.1,0.1-0.2,0.2-0.3,0.3
	c-0.2,0.2-0.5,0.3-0.8,0.4c-0.1,0.1-0.3,0.1-0.4,0.1c-0.3,0.1-0.5,0.2-0.8,0.2c-0.1,0-0.1,0-0.2,0l-0.2,0l-0.1,0.1
	c-0.1,0-0.1,0-0.1,0.1c0,0-0.1,0.1-0.1,0.1c0,0-0.1,0.1-0.1,0.1c0,0-0.1,0.1-0.1,0.1c0,0-0.1,0.1-0.1,0.1c0,0-0.1,0.1-0.1,0.1
	c0,0-0.1,0.1-0.1,0.1c0,0.1-0.1,0.1-0.1,0.2c0,0,0,0.1-0.1,0.2c0,0.1,0,0.1,0,0.2c0,0,0,0,0,0c0,0.1,0,0.1,0,0.2c0,0,0,0.1,0,0.1
	c0,0.1,0,0.2,0.1,0.3v0c0,0,0,0.1,0.1,0.1c0,0,0.1,0.1,0.1,0.1c0,0,0.1,0.1,0.1,0.1c0,0,0.1,0.1,0.1,0.1c0.1,0.1,0.2,0.2,0.4,0.3
	c0,0,0.1,0,0.1,0.1c0,0,0,0,0,0c0,0,0,0,0,0c0,0.1,0,0.2,0.1,0.3c0,0,0,0.1,0.1,0.1c0,0,0,0,0,0c0,0.1,0,0.1,0.1,0.1l0.1,0.1
	c0,0,0.1,0.1,0.1,0.1c0,0,0.1,0.1,0.1,0.1c0,0,0,0,0,0c0,0,0.1,0.1,0.1,0.1c0,0,0.1,0.1,0.1,0.1c0,0,0.1,0,0.1,0.1c0,0,0.1,0,0.1,0
	c0,0,0,0,0,0c0,0,0.1,0,0.1,0c0,0.3,0,0.7,0,0.8c0.1,0.1,0.3-0.3,0.6-0.7c0,0.4-0.1,0.9,0,1.1c0.1,0.2,0.4-0.3,0.8-0.9
	c4.4-1,8.4,2,8.8,6.3c-0.1-0.7-0.9-1-1.3-0.9c-0.2,0.5-0.5,1-1,1.4c0-0.4,0-0.8-0.1-1.2c-0.1,0.6-0.4,1.1-0.8,1.6
	c-0.6,0-1.2-0.2-1.5-0.7c0,0,0-0.1-0.1-0.1c0,0,0-0.1,0-0.1c0,0,0-0.1,0-0.1c0,0,0-0.1,0-0.1v-0.1c0,0,0-0.1,0-0.1c0,0,0-0.1,0-0.1
	c0,0,0-0.1,0.1-0.1c0.1-0.3,0.1-0.5-0.1-0.7c0,0-0.1,0-0.1-0.1c0,0-0.1,0-0.1,0l-0.1,0c0,0-0.1,0-0.1,0c0,0-0.1,0-0.1,0
	c0,0-0.1,0-0.1,0c0,0-0.1,0-0.1,0c0,0-0.1,0-0.1,0c0,0-0.1,0-0.1,0c0,0-0.1,0-0.1,0c0,0-0.1,0-0.1,0.1c0,0-0.1,0-0.1,0.1
	c-1.4,0.9-0.6,3.1,0.4,3.8c-0.4,0.1-0.8,0.1-0.9,0.2l0,0c0.3,0.2,0.5,0.3,0.8,0.4c0.4,0.1,0.8,0.2,1,0.3v0c0.5,0.1,1,0.1,1.6,0.1
	c2.7-0.2,5-2.3,5.4-5l0,0.2c0,0.1,0,0.2,0.1,0.3v0c0,0.1,0,0.1,0,0.2v0c0,0.1,0,0.1,0,0.2c0,0.1,0,0.1,0,0.2v0.1c0,0,0,0.1,0,0.1
	c0,0,0,0.1,0,0.1v0.1c0,0,0,0.1,0,0.1c0,0,0,0.1,0,0.1c0,0,0,0.1,0,0.1c0,0,0,0,0,0.1l0,0.1c0,0,0,0,0,0.1c0,0.1,0,0.1,0,0.2v0
	l0,0.2v0l0,0.2c0,0,0,0,0,0c0,0.1,0,0.1,0,0.2v0c0,0.1,0,0.1-0.1,0.2c0,0,0,0,0,0l-0.1,0.2c0,0.1,0,0.1-0.1,0.2c0,0.1,0,0.1-0.1,0.2
	c0,0.1-0.1,0.1-0.1,0.2h0c0,0.1-0.1,0.1-0.1,0.2c0,0,0,0,0,0c0,0,0,0,0,0c-0.4,0.8-1,1.5-1.7,2.1c-0.1,0-0.1,0.1-0.1,0.1
	c0,0,0,0,0,0c0,0-0.1,0.1-0.1,0.1l0,0h0l0.3,0h0c0.2,0,0.3-0.1,0.5-0.1c0,0,0.1,0,0.1,0l0.1,0c0,0,0.1,0,0.1,0c0,0,0.1,0,0.1,0
	c0.6-0.2,1.2-0.4,1.8-0.6c-1,1.4-2.3,2.4-3.9,3.1c0.7,0,1.4-0.2,2.1-0.4c2.5-0.7,4.6-2.4,5.9-4.7c-0.3,1.4-0.8,2.8-1.7,4
	c0.6-0.4,1.2-0.9,1.7-1.4c1.4-1.4,2.3-3.3,2.6-5.3c0.2,1,0.3,2,0.2,3c4.5-6.2,0.4-12.7-1.3-14.4c0,0,0,0,0,0c0,0,0,0,0,0
	c0,0,0,0,0,0c0,0.1,0,0.1,0,0.2c0,0.1,0,0.3-0.1,0.4c0,0.1-0.1,0.3-0.1,0.4c0,0.1-0.1,0.3-0.1,0.4c-0.1,0.1-0.1,0.3-0.2,0.4
	c-0.1,0.2-0.3,0.5-0.5,0.7c-0.1,0.1-0.2,0.2-0.3,0.3c-0.1,0.1-0.1,0.1-0.2,0.2l-0.1,0.1c-0.1,0.1-0.2,0.2-0.3,0.2
	c-0.1,0.1-0.2,0.1-0.4,0.2c-0.1,0.1-0.3,0.1-0.4,0.2c-0.3,0.1-0.5,0.2-0.8,0.2c-0.1,0-0.3,0-0.4,0.1c-0.1,0-0.2,0-0.3,0
	c-0.1,0-0.3,0-0.4,0c-0.1,0-0.3,0-0.4-0.1c-0.1,0-0.3-0.1-0.4-0.1h0c0.1,0,0.3,0,0.4-0.1c0.3,0,0.6-0.1,0.8-0.2
	c0.1,0,0.3-0.1,0.4-0.2c0.1-0.1,0.2-0.1,0.4-0.2c0.1-0.1,0.2-0.2,0.3-0.2s0.2-0.2,0.3-0.3c0.1-0.1,0.2-0.2,0.3-0.3
	c0.1-0.1,0.2-0.2,0.3-0.3c0,0,0,0,0-0.1c0.1-0.1,0.1-0.2,0.2-0.3c0.1-0.2,0.2-0.5,0.3-0.8c0-0.1,0.1-0.3,0.1-0.4
	c0-0.1,0-0.3,0.1-0.4c0-0.1,0-0.3,0-0.4c0-0.1,0-0.2,0-0.3c0-0.1,0-0.3-0.1-0.4c0-0.1-0.1-0.3-0.1-0.4c0-0.1-0.1-0.3-0.1-0.4
	c-0.1-0.1-0.1-0.3-0.2-0.4c-0.1-0.1-0.1-0.2-0.2-0.4c-0.1-0.1-0.2-0.2-0.2-0.3c-0.1-0.1-0.2-0.2-0.3-0.3c-0.1-0.1-0.1-0.1-0.2-0.2
	c-0.3-0.2-0.6-0.4-0.9-0.6c0,0-0.1,0-0.1-0.1C-75.5,94.5-75.7,94.5-75.9,94.4L-75.9,94.4z"/>
</svg>
