<svg version="1.1" x="0px" y="0px" viewBox="32 -35 194 200">
    <path fill="#30BE00"
        d="M188.4,51.3h-9.8l-5.3,27.5h8.7c5.8,0,10.1-1.1,12.9-3.3s4.7-5.8,5.7-10.9c0.9-4.9,0.5-8.3-1.3-10.3  C197.5,52.3,193.8,51.3,188.4,51.3z" />
    <path fill="#30BE00"
        d="M76.8,51.3H67l-5.3,27.5h8.7c5.8,0,10.1-1.1,12.9-3.3S88,69.7,89,64.6c0.9-4.9,0.5-8.3-1.3-10.3  S82.2,51.3,76.8,51.3z" />
    <path fill="#30BE00"
        d="M129-35C75.4-35,32,8.4,32,62v6c0,53.6,43.4,97,97,97s97-43.4,97-97v-6C226,8.4,182.6-35,129-35z M94.7,81.7  c-2.8,2.7-6,4.6-9.5,5.7c-3.5,1.1-7.9,1.7-13.3,1.7H59.7l-3.4,17.4H42l12.7-65.6h27.5c8.3,0,14.3,2.1,18.1,6.5  c3.8,4.4,4.9,10.4,3.4,18.2c-0.7,3.2-1.7,6.1-3.2,8.8C99,77.1,97.1,79.5,94.7,81.7z M136.5,89.1l5.6-29c0.6-3.3,0.4-5.6-0.7-6.8  c-1.1-1.2-3.5-1.8-7.1-1.8H123l-7.3,37.6h-14.2l12.8-65.6h14.2l-3.4,17.4h12.6c8,0,13.4,1.4,16.5,4.2c3,2.8,3.9,7.3,2.7,13.5  L151,89.1H136.5z M215.3,65.6c-0.7,3.2-1.7,6.1-3.2,8.8c-1.5,2.7-3.4,5.1-5.8,7.3c-2.8,2.7-6,4.6-9.5,5.7  c-3.5,1.1-7.9,1.7-13.3,1.7h-12.2l-3.4,17.4h-14.3l12.7-65.6h27.5c8.3,0,14.3,2.2,18.1,6.5C215.7,51.8,216.8,57.8,215.3,65.6z" />
</svg>