<svg version="1.1" id="Camada_1" x="0px" y="0px" viewBox="35 -35 200 200">
    <path fill="#30BE00"
        d="M129.3,103.4C129.2,103.6,129.1,103.7,129.3,103.4L129.3,103.4z M207.2,76.2c-6.3,0-12.5,1.4-18.1,4.2  c-1.8-3.7-3.8-7-4.1-9.4c-0.4-2.8-0.8-4.5-0.3-7.9c0.4-3.4,2.4-8.2,2.4-8.5c0-0.3-0.4-2.1-4.5-2.1c-4,0-7.5,0.8-7.9,1.8  c-0.7,1.9-1.3,3.9-1.7,6c-0.7,3.7-8.1,16.7-12.2,23.5c-1.4-2.7-2.5-5-2.8-6.9c-0.4-2.8-0.8-4.5-0.3-7.9c0.4-3.4,2.4-8.2,2.4-8.5  c0-0.3-0.4-2.1-4.5-2.1c-4,0-7.5,0.8-7.9,1.8c-0.4,1.1-0.8,3.6-1.7,6c-0.8,2.4-10.6,24.2-13.1,29.8c-1.3,2.9-2.4,5.2-3.3,6.8  c-0.1,0.3-0.2,0.4-0.3,0.5c0.1-0.2,0.2-0.3,0.2-0.3c-0.7,1.3-1.1,2.1-1.1,2.1l0,0c-0.5,1-1.1,1.9-1.4,1.9c-0.2,0-0.6-2.6,0.1-6.2  c1.5-7.6,4.9-19.3,4.9-19.7c0-0.2,0.7-2.3-2.3-3.3c-2.8-1-3.9,0.7-4.1,0.7s-0.4,0.6-0.4,0.6s3.1-13.1-6.1-13.1  c-5.8,0-13.8,6.3-17.7,12c-2.5,1.3-7.8,4.3-13.4,7.3l-6.5,3.6c-0.2-0.2-0.3-0.3-0.4-0.5C69.9,76.5,49.3,68,50.1,52  c0.3-5.8,2.3-21.2,39.7-39.8c30.6-15.2,55.1-11,59.3-1.7c6.1,13.3-13.1,38-44.9,41.5c-12.1,1.4-18.5-3.3-20.1-5.1  c-1.6-1.8-1.9-1.9-2.5-1.6c-1,0.6-0.4,2.2,0,3.2c0.9,2.5,4.8,6.8,11.5,9c5.8,1.9,20.1,3,37.2-3.7c19.3-7.4,34.3-28.2,29.9-45.5  c-4.5-17.6-33.7-23.4-61.3-13.6c-16.5,5.8-34.3,15-47.1,27C36.6,36,34.2,48.4,35.2,53.6C38.8,72,64.1,84,74.3,92.9l-1.4,0.8  c-5.1,2.5-24.4,12.7-29.3,23.3c-5.5,12.1,0.9,20.8,5.1,22c13.1,3.6,26.4-2.9,33.6-13.6c7.2-10.7,6.3-24.7,3-31.1  c0-0.1-0.1-0.2-0.1-0.3c3.7-2.2,7.5-4.4,11.3-6.5c-1.3,3.4-2.2,7.4-2.6,13.3c-0.6,6.9,2.3,15.8,6,19.3c1.6,1.5,3.6,1.6,4.8,1.6  c4.3,0,6.3-3.6,8.4-7.8c2.7-5.2,5-11.2,5-11.2s-3,16.3,5.1,16.3c2.9,0,5.9-3.8,7.2-5.7l0,0c0,0,0.1-0.1,0.2-0.4  c0.3-0.5,0.5-0.8,0.5-0.8V112c1.2-2,3.8-6.7,7.7-14.4c5.1-9.9,9.9-22.3,9.9-22.3c0.5,2.7,1.1,5.4,1.9,8.1c0.9,3,2.7,6.2,4.2,9.4  c-1.2,1.6-1.9,2.6-1.9,2.6s0,0,0,0.1c-0.9,1.3-2,2.6-3.1,3.9c-4,4.8-8.8,10.2-9.4,11.8c-0.8,1.8-0.6,3.2,0.9,4.3  c1.1,0.8,2.9,0.9,4.9,0.8c3.6-0.3,6.1-1.1,7.3-1.7c2.2-0.8,4.4-1.9,6.3-3.3c3.9-2.9,6.3-7,6.1-12.4c-0.1-3-1.1-6-2.3-8.8  c0.3-0.5,0.7-1,1.1-1.6c4.1-6.1,7.7-12.4,11-18.9c0.5,2.7,1.1,5.4,1.9,8.1c0.8,2.5,2.2,5.3,3.6,8c-5.8,4.7-9.4,10.2-10.6,13.8  c-2.3,6.7-0.5,9.7,2.9,10.3c1.5,0.3,3.7-0.4,5.3-1.1c2.4-0.8,4.7-2,6.7-3.5c3.9-2.9,7.7-6.9,7.4-12.4c-0.1-2.5-0.8-4.9-1.7-7.3  c4.9-2.1,11.3-3.2,19.4-2.3c17.4,2,20.8,12.9,20.1,17.4s-4.3,7.1-5.5,7.8c-1.2,0.8-1.6,1-1.5,1.6c0.2,0.8,0.7,0.8,1.8,0.6  c1.4-0.3,9.1-3.7,9.5-12.1C235.5,87.8,225.3,76.1,207.2,76.2L207.2,76.2z M73.1,121.4c-5.8,6.3-13.8,8.7-17.3,6.7  c-3.7-2.2-2.3-11.4,4.8-18.1c4.3-4.1,9.9-7.8,13.6-10.1c0.8-0.5,2.1-1.3,3.6-2.2c0.1-0.1,0.2-0.2,0.4-0.2  c0.3-0.2,0.6-0.3,0.9-0.5C81.6,106.5,79.1,114.8,73.1,121.4L73.1,121.4z M115,92.9c-2,4.9-6.2,17.4-8.8,16.8  c-2.2-0.6-3.5-10.1-0.4-19.5c1.6-4.7,4.9-10.3,6.8-12.5c3.2-3.5,6.6-4.7,7.4-3.3C121.2,76.2,116.3,89.8,115,92.9z M149.7,109.4  c-0.8,0.4-1.6,0.7-2,0.5c-0.3-0.2,0.3-0.8,0.3-0.8s4.3-4.7,6.1-6.8c1-1.3,2.2-2.7,3.4-4.3c0,0.2,0,0.3,0,0.5  C157.5,104.2,152.2,107.9,149.7,109.4L149.7,109.4z M176.5,103.3c-0.6-0.4-0.5-1.9,1.6-6.5c0.8-1.8,2.7-4.8,5.9-7.7  c0.4,1.1,0.6,2.2,0.6,3.4C184.5,99.6,179.5,102.3,176.5,103.3L176.5,103.3z" />
</svg>